<?xml version="1.0" standalone="no"?> <!DOCTYPE svg PUBLIC "-//W3C//DTD SVG 1.0//EN" "http://www.w3.org/TR/2001/REC-SVG-20010904/DTD/svg10.dtd" > <svg xmlns="http://www.w3.org/2000/svg" width="100%" height="100%">
<defs >
<font horiz-adv-x="579" ><font-face
    font-family="Reforma 2018"
    units-per-em="1000"
    panose-1="0 0 4 0 0 0 0 0 0 0"
    ascent="1081"
    descent="-227"
    alphabetic="0" />
<missing-glyph horiz-adv-x="550" d="M490 730V0H60V730H490ZM275 408L425 695H125L275 408ZM100 657V73L253 365L100 657ZM450 73V657L298 365L450 73ZM125 35H425L275 322L125 35Z" />
<glyph unicode=" " glyph-name="space" horiz-adv-x="240" />
<glyph unicode="!" glyph-name="exclam" horiz-adv-x="332" d="M129 335V771H203V335L191 189H141L129 335ZM126 -2T125 0T123 10V83Q123 93 125 95T135 97H197Q205 97 207 95T209 85V10Q209 2 207 0T197 -2H133Q126 -2 125 0Z" />
<glyph unicode="&quot;" glyph-name="quotedbl" horiz-adv-x="383" d="M86 533T80 584T73 724Q73 744 75 750T84 759T113 761Q133 761 140 759T149 751T151 724Q151 632 145 582T113 480Q86 533 80 584ZM245 533T239 584T232 724Q232 744 234 750T243 759T272
761Q292 761 299 759T308 751T310 724Q310 632 304 582T272 480Q245 533 239 584Z" />
<glyph unicode="#" glyph-name="numbersign" horiz-adv-x="679" d="M505 418L469 254H590L577 191H455L413 0H350L392 191H214L172 0H109L151 191H40L53 254H165L202 418H89L102 480H216L256 662H317L277 480H457L497 662H558L518 480H639L627 418H505ZM443 418H264L228
254H406L443 418Z" />
<glyph unicode="$" glyph-name="dollar" horiz-adv-x="516" d="M464 136T418 91T287 34V-103H232V30H231Q156 30 92 58Q83 63 80 67T77 79Q77 95 83 152Q160 89 254 89Q317 89 354 117T391 198Q391 230 372 255T326 300T251 347Q201 378 170 403T117 464T95 548Q95
613 134 655T242 710V870H297V715H298Q347 715 404 704Q429 699 439 699V610Q404 633 367 643T283 654Q231 654 197 631T163 561Q163 526 183 499T230 452T312 400Q360 371 391 346T443 286T464 206Q464 136 418 91Z" />
<glyph unicode="%" glyph-name="percent" horiz-adv-x="810" d="M136 396T88 445T40 574Q40 627 62 669T123 736T212 760Q290 760 335 711T380 577Q380 498 335 447T212 396Q136 396 88 445ZM636 760H717L179 0H100L636 760ZM263 459T290 489T317 574Q317 630
289 661T211 693Q162 693 133 662T103 574Q103 521 134 490T213 459Q263 459 290 489ZM526 -9T478 40T430 169Q430 223 452 265T513 331T602 355Q680 355 725 306T770 172Q770 93 725 42T602 -9Q526 -9 478 40ZM653 54T680 84T707 169Q707 225 679 256T601 288Q552
288 523 257T493 169Q493 116 524 85T603 54Q653 54 680 84Z" />
<glyph unicode="&amp;" glyph-name="ampersand" horiz-adv-x="679" d="M649 30T674 0H585Q575 13 566 23T549 41L525 68L512 83Q474 40 420 14T296 -12Q194 -12 131 40T68 184Q68 258 108 308T223 399Q179 449 158 493T137 592Q137 636 159 675T221 737T307 761Q382
761 426 719T470 610Q470 535 429 484T316 392Q396 311 511 185Q535 239 535 302Q535 345 521 390L584 400Q596 365 596 309Q596 216 552 139L609 75Q649 30 674 0ZM259 697T232 667T205 590Q205 505 282 430Q340 462 371 500T402 595Q402 643 375 670T302 697Q259
697 232 667ZM409 45T475 125Q372 242 260 361Q198 326 166 286T134 191Q134 147 156 114T217 63T299 45Q409 45 475 125Z" />
<glyph unicode="&apos;" glyph-name="quotesingle" horiz-adv-x="224" d="M86 533T80 584T73 724Q73 744 75 750T84 759T113 761Q133 761 140 759T149 751T151 724Q151 632 145 582T113 480Q86 533 80 584Z" />
<glyph unicode="(" glyph-name="parenleft" horiz-adv-x="427" d="M202 -123T141 4T80 295Q80 572 292 780H367Q271 691 210 568T149 292Q149 130 208 10T367 -209H292Q202 -123 141 4Z" />
<glyph unicode=")" glyph-name="parenright" horiz-adv-x="427" d="M58 -209Q157 -111 216 9T276 292Q276 444 215 567T58 780H133Q345 572 345 295Q345 131 284 4T133 -209H58Z" />
<glyph unicode="*" glyph-name="asterisk" horiz-adv-x="500" d="M98 393L206 537L56 603L74 646L224 590L225 756H274L279 590L431 646L448 603L294 537L405 393L365 362L250 505L139 362L98 393Z" />
<glyph unicode="+" glyph-name="plus" horiz-adv-x="600" d="M570 263H332V10H268V263H30V325H268V568H332V325H570V263Z" />
<glyph unicode="," glyph-name="comma" horiz-adv-x="250" d="M88 -83T88 0V78Q88 99 90 107T100 118T129 121Q149 121 156 119T166 108T169 78Q169 9 159 -32T124 -99T53 -144Q88 -83 88 0Z" />
<glyph unicode="-" glyph-name="hyphen" horiz-adv-x="328" d="M40 303H288V243H40V303Z" />
<glyph unicode="." glyph-name="period" horiz-adv-x="250" d="M85 -2T84 0T82 10V83Q82 93 84 95T94 97H156Q164 97 166 95T168 85V10Q168 2 166 0T156 -2H92Q85 -2 84 0Z" />
<glyph unicode="/" glyph-name="slash" horiz-adv-x="441" d="M305 750H376L136 -180H65L305 750Z" />
<glyph unicode="0" glyph-name="zero" horiz-adv-x="642" d="M251 -8T195 23T108 113T76 248Q76 325 107 386T195 481T324 516Q437 516 501 445T566 252Q566 177 537 118T453 26T324 -8Q251 -8 195 23ZM410 56T455 106T500 247Q500 340 452 392T322 445Q240 445
191 393T142 247Q142 158 193 107T326 56Q410 56 455 106Z" />
<glyph unicode="1" glyph-name="one" horiz-adv-x="411" d="M52 60H170V440L57 427V493L238 518V60H356V0H52V60Z" />
<glyph unicode="2" glyph-name="two" horiz-adv-x="492" d="M58 52L104 85Q193 149 238 186T312 261T340 339Q340 391 306 419T215 447Q129 447 60 401V477Q128 515 224 515Q306 515 358 474T410 353Q410 298 380 252T305 170T189 86L157 64V60H359H443V0H359H58V52Z" />
<glyph unicode="3" glyph-name="three" horiz-adv-x="503" d="M113 -190T50 -152V-76Q119 -126 202 -126Q261 -126 300 -92T340 4Q340 68 301 105T183 142Q169 142 161 141V186Q241 205 280 241T320 339Q320 392 287 420T198 449Q125 449 53 406V481Q124 515 209
515Q291 515 340 470T389 349Q389 225 262 180V176Q334 165 372 123T411 6Q411 -51 384 -95T309 -165T201 -190Q113 -190 50 -152Z" />
<glyph unicode="4" glyph-name="four" horiz-adv-x="600" d="M370 0H42L22 38L360 515H440V59H560V0H440V-191H370V0ZM370 59V421L108 59H370Z" />
<glyph unicode="5" glyph-name="five" horiz-adv-x="551" d="M191 -190T157 -182T89 -156L67 -69Q105 -98 145 -112T234 -126Q308 -126 350 -84T392 29Q392 95 353 130T244 165Q164 165 99 134L100 181L106 505H435L431 435H174L166 215Q211 227 264 227Q354 227
412 179T470 36Q470 -33 439 -84T354 -163T236 -190Q191 -190 157 -182Z" />
<glyph unicode="6" glyph-name="six" horiz-adv-x="608" d="M253 -4T199 30T113 129T81 280Q81 402 129 509T270 688T490 780V708Q394 695 324 643T212 516T159 362H161Q187 403 229 422T321 441Q422 441 480 384T539 227Q539 162 512 109T435 26T320 -4Q253 -4
199 30ZM393 64T429 106T466 221Q466 292 422 332T305 372Q221 372 158 344Q155 322 155 279Q155 219 177 170T240 93T330 64Q393 64 429 106Z" />
<glyph unicode="7" glyph-name="seven" horiz-adv-x="527" d="M398 435H31V505H478V448L127 -201H50L398 435Z" />
<glyph unicode="8" glyph-name="eight" horiz-adv-x="649" d="M255 -8T202 19T119 97T90 214Q90 283 127 333T226 405V411Q120 466 120 580Q120 638 146 683T219 754T327 780Q388 780 433 755T504 685T529 583Q529 520 503 480T428 411V405Q490 384 524 337T559
219Q559 154 532 103T453 22T328 -8Q255 -8 202 19ZM390 437T424 473T459 574Q459 639 423 676T326 714Q264 714 228 677T191 574Q191 512 230 475T329 437Q390 437 424 473ZM402 55T444 96T487 212Q487 288 442 331T326 375Q253 375 208 332T163 212Q163 140 210
98T329 55Q402 55 444 96Z" />
<glyph unicode="9" glyph-name="nine" horiz-adv-x="599" d="M98 -153Q245 -136 332 -51T441 156L438 157Q416 122 375 102T275 82Q182 82 127 138T72 292Q72 355 100 406T179 486T296 515Q359 515 409 485T489 395T518 255Q518 134 469 32T324 -136T98 -220V-153ZM381
144T440 171Q445 207 445 256Q445 342 405 395T291 448Q225 448 184 407T143 295Q143 225 185 185T290 144Q381 144 440 171Z" />
<glyph unicode=":" glyph-name="colon" horiz-adv-x="250" d="M85 -2T84 0T82 10V83Q82 93 84 95T94 97H156Q164 97 166 95T168 85V10Q168 2 166 0T156 -2H92Q85 -2 84 0ZM85 330T84 332T82 342V415Q82 425 84 427T94 429H156Q164 429 166 427T168 417V342Q168
334 166 332T156 330H92Q85 330 84 332Z" />
<glyph unicode=";" glyph-name="semicolon" horiz-adv-x="250" d="M341 -83T341 0V78Q341 99 343 107T353 118T382 121Q402 121 409 119T419 108T422 78Q422 9 412 -32T377 -99T306 -144Q341 -83 341 0ZM85 330T84 332T82 342V415Q82 425 84 427T94 429H156Q164
429 166 427T168 417V342Q168 334 166 332T156 330H92Q85 330 84 332Z" />
<glyph unicode="&lt;" glyph-name="less" horiz-adv-x="600" d="M30 294L562 573V495L166 294L562 93V15L30 294Z" />
<glyph unicode="=" glyph-name="equal" horiz-adv-x="600" d="M30 501H570V439H30V501ZM30 425H570V363H30V425Z" />
<glyph unicode="&gt;" glyph-name="greater" horiz-adv-x="600" d="M562 294L30 15V93L426 294L30 495V573L562 294Z" />
<glyph unicode="?" glyph-name="question" horiz-adv-x="484" d="M174 211T167 230T159 274Q159 309 183 338T258 411Q313 458 342 494T371 575Q371 638 331 675T222 712Q122 712 40 649V739Q122 780 227 780Q326 780 385 731T445 591Q445 543 426 505T381 439T314
376Q271 339 251 315T231 263Q231 248 236 234T247 208T257 189H187Q174 211 167 230ZM181 -2T180 0T178 10V83Q178 93 180 95T190 97H252Q260 97 262 95T264 85V10Q264 2 262 0T252 -2H188Q181 -2 180 0Z" />
<glyph unicode="@" glyph-name="at" horiz-adv-x="966" d="M341 -162T262 -123T137 -8T92 179Q92 314 153 423T319 594T554 656Q659 656 738 614T859 495T902 322Q902 234 867 158T771 37T640 -8Q602 -8 583 12T564 66Q564 76 577 160Q586 216 594 275T602 361Q602
394 581 412T518 430Q463 430 423 395T363 301T342 175Q342 48 458 48Q490 48 514 55T563 76Q531 -8 428 -8Q359 -8 319 35T278 169Q278 253 306 328T394 450T539 497Q602 497 638 467T674 385Q674 357 652 229Q632 105 632 83Q632 66 636 59T654 52Q705 52 748
88T818 185T844 314Q844 394 807 459T702 561T540 598Q440 598 350 545T206 397T151 189Q151 45 232 -29T449 -103Q557 -103 644 -76L653 -129Q612 -145 555 -153T442 -162Q341 -162 262 -123Z" />
<glyph unicode="A" glyph-name="A" horiz-adv-x="717" d="M662 58T689 0H596Q588 31 575 67Q561 110 548 143L504 257H210L164 138L140 74Q122 17 117 0H28Q53 53 74 104L92 145L285 635L329 750H399Q412 704 440 634L625 153Q662 58 689 0ZM481 317L360 634H356L233
317H481Z" />
<glyph unicode="B" glyph-name="B" horiz-adv-x="628" d="M275 -6T237 -3Q224 -2 197 -1T150 0H122Q124 28 126 84L128 123Q129 174 129 287V496Q129 547 127 631Q126 664 120 750H136Q163 750 217 752L293 753Q397 753 449 709T502 585Q502 515 475 472T391 399V398Q469
386 516 341T564 212Q564 114 499 54T309 -6Q275 -6 237 -3ZM350 413T386 455T422 562Q422 692 274 692Q243 692 208 687L207 418Q215 416 244 414Q260 413 288 413Q350 413 386 455ZM390 53T434 92T478 198Q478 278 429 317T294 357H212Q206 357 206 350V319Q206
177 208 112Q209 85 215 75T243 61Q281 53 320 53Q390 53 434 92Z" />
<glyph unicode="C" glyph-name="C" horiz-adv-x="742" d="M350 -8T264 36T129 165T80 368Q80 483 127 572T261 711T461 761Q594 761 690 718L698 619Q646 656 586 674T451 692Q364 692 298 653T194 542T157 375Q157 271 200 199T318 91T487 54Q541 54 594 66T691
97V34Q648 14 588 3T459 -8Q350 -8 264 36Z" />
<glyph unicode="D" glyph-name="D" horiz-adv-x="860" d="M341 -8T269 -4Q203 0 170 0H120Q123 25 127 101Q130 150 130 266V362Q130 522 127 643Q125 691 123 716L121 750H164Q191 750 257 752Q329 754 368 754Q567 754 673 660T780 387Q780 259 731 171T591
37T380 -8Q341 -8 269 -4ZM537 50T618 133T700 373Q700 532 605 612T341 693Q267 693 211 685Q210 618 209 516T207 338Q207 206 213 68Q253 60 302 55T388 50Q537 50 618 133Z" />
<glyph unicode="E" glyph-name="E" horiz-adv-x="546" d="M123 25T127 101Q130 175 130 392Q130 522 127 643Q126 680 122 750H391H468V678Q433 682 386 682H204V426H360Q394 426 442 428V362Q407 366 360 366H204V60H396Q443 60 478 64V0H396H120Q123 25 127 101Z" />
<glyph unicode="F" glyph-name="F" horiz-adv-x="516" d="M123 25T127 101Q130 175 130 392Q130 522 127 643Q126 680 122 750H391H468V678Q433 682 386 682H204V426H360Q394 426 442 428V362Q407 366 360 366H204V329V206Q204 138 205 101Q206 65 210 21Q212
7 212 0H120Q123 25 127 101Z" />
<glyph unicode="G" glyph-name="G" horiz-adv-x="824" d="M731 308L728 215L726 17H651Q558 -8 459 -8Q350 -8 264 36T129 165T80 368Q80 483 127 572T261 711T461 761Q594 761 690 718L698 619Q647 655 588 671T451 688Q364 688 298 650T194 541T157 375Q157
271 200 200T318 94T487 58Q569 58 651 79L650 169Q649 179 649 201Q648 238 644 308H731Z" />
<glyph unicode="H" glyph-name="H" horiz-adv-x="836" d="M630 148T630 257V346H204Q204 218 209 101Q213 33 216 0H120Q123 25 127 101Q130 175 130 362Q130 522 127 643Q126 680 122 750H213Q209 682 208 647Q206 566 204 406H630Q630 538 627 643Q626 680 622
750H713Q709 682 708 647Q704 483 704 362Q704 194 709 101Q713 33 716 0H620Q623 25 627 101Q630 148 630 257Z" />
<glyph unicode="I" glyph-name="I" horiz-adv-x="339" d="M123 25T127 101Q130 150 130 266V362Q130 522 127 643Q126 680 122 750H216Q212 682 211 647Q207 483 207 362Q207 194 212 101Q216 33 219 0H120Q123 25 127 101Z" />
<glyph unicode="J" glyph-name="J" horiz-adv-x="341" d="M28 -115Q80 -111 109 -90T138 -27V463Q138 576 136 641Q135 673 129 719L126 750H225Q217 682 216 636Q213 531 213 322V-48Q213 -101 174 -137T52 -173L28 -115Z" />
<glyph unicode="K" glyph-name="K" horiz-adv-x="654" d="M123 25T127 101Q130 150 130 266V362Q130 522 127 643Q126 680 122 750H216Q212 682 211 647Q207 483 207 362Q207 194 212 101Q216 33 219 0H120Q123 25 127 101ZM500 18Q487 42 476 58Q449 98 425 127L215
389L439 649Q459 673 479 701Q484 707 489 716T497 731Q505 747 507 750H631Q586 709 518 636L298 400L522 131Q579 63 642 0H510L500 18Z" />
<glyph unicode="L" glyph-name="L" horiz-adv-x="522" d="M123 25T127 101Q130 175 130 362Q130 522 127 643Q126 680 122 750H213Q209 682 208 647Q204 483 204 362V60H404Q451 60 486 64V0H392H120Q123 25 127 101Z" />
<glyph unicode="M" glyph-name="M" horiz-adv-x="1043" d="M146 59T149 109Q155 231 168 542L169 574Q172 716 171 750H238L529 138H531L808 750H869Q871 664 873 605Q876 534 880 397Q883 254 889 119Q892 60 899 0H806Q813 68 812 113L801 579H798L551 35H499L242
577H238L223 110Q222 68 228 0H136Q146 59 149 109Z" />
<glyph unicode="N" glyph-name="N" horiz-adv-x="936" d="M225 625H221L220 123Q220 72 227 0H140Q145 65 148 132Q151 216 151 455L152 585V701V758H213L708 128H713V570Q713 685 706 750H796Q792 703 790 631Q788 540 787 410T785 177V-8H729L225 625Z" />
<glyph unicode="O" glyph-name="O" horiz-adv-x="909" d="M344 -8T260 41T128 177T80 369Q80 482 126 571T258 710T456 761Q564 761 649 712T781 576T829 382Q829 269 783 181T652 42T451 -8Q344 -8 260 41ZM556 58T620 98T716 210T748 373Q748 463 711 535T605
648T445 690Q360 690 295 651T195 541T159 380Q159 290 196 217T303 101T464 58Q556 58 620 98Z" />
<glyph unicode="P" glyph-name="P" horiz-adv-x="600" d="M126 56T128 137Q130 289 130 368Q130 465 126 641Q125 702 120 750L172 751Q248 753 311 753Q424 753 488 700T552 549Q552 435 484 371T301 307Q267 307 240 316V366Q268 362 308 362Q382 362 425 406T468
531Q468 612 420 652T280 693Q248 693 200 687V663V318Q200 224 203 137Q206 62 211 0H120Q126 56 128 137Z" />
<glyph unicode="Q" glyph-name="Q" horiz-adv-x="909" d="M556 -73T623 -101T786 -130Q807 -130 818 -129V-188Q787 -194 747 -194Q638 -194 556 -147T388 -3Q297 11 227 62T119 193T80 369Q80 482 126 571T258 710T456 761Q564 761 649 712T781 576T829 382Q829
275 788 190T669 53T487 -7Q556 -73 623 -101ZM159 290T196 217T303 101T464 58Q556 58 620 98T716 210T748 373Q748 463 711 535T605 648T445 690Q360 690 295 651T195 541T159 380Q159 290 196 217Z" />
<glyph unicode="R" glyph-name="R" horiz-adv-x="675" d="M124 36T128 137Q130 183 130 287L129 463Q129 537 127 641Q126 689 122 750L172 751Q248 753 308 753Q420 753 481 701T543 553Q543 477 511 429T418 343Q507 193 593 88Q620 54 644 30T676 0H635Q613
0 547 -2L494 86Q482 104 450 156Q431 188 393 245Q371 278 351 310Q347 316 338 316L207 317Q207 224 210 137Q213 62 218 0H120Q124 36 128 137ZM379 372T418 414T458 531Q458 613 414 653T279 693Q254 693 206 687V395Q206 385 212 383Q242 372 307 372Q379
372 418 414Z" />
<glyph unicode="S" glyph-name="S" horiz-adv-x="548" d="M161 -8T99 23Q90 28 87 33T84 47Q84 65 90 128Q165 58 258 58Q319 58 355 89T392 179Q392 214 374 242T329 292T255 345Q206 379 175 407T123 475T102 568Q102 654 155 703T301 753Q344 753 406 741Q429
736 439 736V637Q404 663 368 674T286 686Q235 686 202 660T169 582Q169 543 188 513T235 461T315 403Q362 370 393 343T444 277T464 188Q464 98 403 45T235 -8Q161 -8 99 23Z" />
<glyph unicode="T" glyph-name="T" horiz-adv-x="640" d="M274 25T278 101Q281 150 281 267V362V682H106Q59 682 24 678V750H106H533H616V678Q581 682 534 682H356V362Q356 175 360 101Q364 33 367 0H271Q274 25 278 101Z" />
<glyph unicode="U" glyph-name="U" horiz-adv-x="864" d="M304 -8T226 58T148 253Q148 532 145 646Q144 677 140 750H230Q230 740 228 724Q227 710 226 691T225 646L224 480Q222 358 222 276Q222 168 280 115T442 62Q538 62 592 112T646 265Q646 411 642 659Q640
719 637 750H724Q720 702 720 659Q720 524 719 458L718 257Q718 172 681 113T578 23T432 -8Q304 -8 226 58Z" />
<glyph unicode="V" glyph-name="V" horiz-adv-x="757" d="M325 46T297 116L112 597Q75 692 48 750H142Q159 685 189 607L378 126H382L573 612Q598 676 618 750H709Q684 697 663 646L645 605L452 115L408 0H338Q325 46 297 116Z" />
<glyph unicode="W" glyph-name="W" horiz-adv-x="1086" d="M251 45T232 116L101 597Q75 693 56 750H148Q153 713 158 692Q165 654 178 607L312 108H319L467 612Q491 697 498 750H583Q594 683 617 607L771 108H777L912 612Q922 650 928 678Q936 715 941 750H1030L1016
707Q1000 658 985 605L845 115L825 41Q820 17 815 0H723Q712 58 694 116L541 621H536L388 115Q382 94 366 30Q360 10 358 0H259Q251 45 232 116Z" />
<glyph unicode="X" glyph-name="X" horiz-adv-x="662" d="M570 85Q603 36 633 0H529Q520 18 507 40T483 80L328 309L168 76Q139 34 124 0H26Q71 54 89 80L287 369L87 665Q54 714 24 750H128Q139 725 174 671L333 436L496 673Q522 711 540 750H638Q599 705 575
669L374 376L570 85Z" />
<glyph unicode="Y" glyph-name="Y" horiz-adv-x="612" d="M266 25T270 101Q272 148 272 249V319L228 400L84 662Q63 700 28 750H128Q134 734 147 710L169 669L313 401H317L459 671Q463 677 478 708Q490 733 495 749L584 750Q561 717 535 668L349 324Q349 190 353
101Q354 70 358 30L360 0H263Q266 25 270 101Z" />
<glyph unicode="Z" glyph-name="Z" horiz-adv-x="607" d="M488 0H28L452 682H121Q74 682 39 678V750H117H576L145 58H494Q540 58 579 62V0H488Z" />
<glyph unicode="[" glyph-name="bracketleft" horiz-adv-x="365" d="M132 39T132 286Q132 533 120 780H289V726H182Q193 495 193 286Q193 76 182 -155H289V-209H120Q132 39 132 286Z" />
<glyph unicode="\" glyph-name="backslash" horiz-adv-x="441" d="M65 750H136L376 -180H305L65 750Z" />
<glyph unicode="]" glyph-name="bracketright" horiz-adv-x="365" d="M76 -209V-155H183Q172 76 172 286Q172 495 183 726H76V780H245Q233 533 233 286Q233 39 245 -209H76Z" />
<glyph unicode="^" glyph-name="asciicircum" horiz-adv-x="600" d="M259 756Q277 761 300 761Q322 761 341 756L560 376H509L300 693L91 376H40L259 756Z" />
<glyph unicode="_" glyph-name="underscore" horiz-adv-x="600" d="M20 -79H580V-134H20V-79Z" />
<glyph unicode="`" glyph-name="grave" horiz-adv-x="600" d="M203 727H256H303L398 559H349L203 727Z" />
<glyph unicode="a" glyph-name="a" horiz-adv-x="486" d="M123 -8T88 26T52 115Q52 227 188 245L311 262Q313 312 313 343Q313 387 289 408T215 430Q133 430 65 386V459Q131 496 221 496Q292 496 334 464T377 364Q377 331 375 286T372 221Q367 144 367 90Q367
48 408 48Q430 48 446 54V7Q425 -8 386 -8Q351 -8 330 13T308 76Q308 105 310 165L311 212L188 195Q156 191 137 174T117 126Q117 86 141 67T209 47Q237 47 263 55T308 76Q292 -8 180 -8Q123 -8 88 26Z" />
<glyph unicode="b" glyph-name="b" horiz-adv-x="576" d="M230 -8T188 4T106 41V641Q106 674 100 699T78 754L174 780V78Q219 46 283 46Q359 46 405 96T451 229Q451 324 409 376T286 428Q256 428 227 421T174 400Q185 446 225 471T315 496Q415 496 467 429T520
244Q520 173 490 116T406 25T281 -8Q230 -8 188 4Z" />
<glyph unicode="c" glyph-name="c" horiz-adv-x="448" d="M223 -8T170 21T87 105T56 237Q56 314 85 372T166 463T286 496Q362 496 422 468V392Q386 410 354 420T282 430Q206 430 163 379T120 242Q120 148 169 98T302 48Q335 48 361 53T419 71V12Q359 -8 292 -8Q223
-8 170 21Z" />
<glyph unicode="d" glyph-name="d" horiz-adv-x="586" d="M174 -8T115 56T56 239Q56 316 85 374T166 464T284 496Q353 496 403 473V651Q403 684 399 709T384 764L471 780L465 208L464 90Q464 69 474 59T505 48Q521 48 542 55V8Q522 -8 481 -8Q445 -8 424 14T403
77V413Q347 434 277 434Q205 434 162 383T119 244Q119 147 164 98T295 48Q358 48 403 76Q394 38 362 15T271 -8Q174 -8 115 56Z" />
<glyph unicode="e" glyph-name="e" horiz-adv-x="505" d="M179 -8T118 56T56 235Q56 313 83 372T159 463T271 496Q358 496 405 441T453 281Q453 258 452 246H120Q119 237 119 222Q119 146 168 98T308 50Q375 50 444 80V23Q380 -8 288 -8Q179 -8 118 56ZM385 297Q383
363 352 398T263 434Q205 434 170 399T126 297H385Z" />
<glyph unicode="f" glyph-name="f" horiz-adv-x="340" d="M232 715T213 692T194 624V476H306L300 420H194V84Q194 52 197 29T202 0H120Q127 49 127 84L126 420H56L60 476H125V594Q125 682 162 731T273 780Q329 780 372 763L369 693Q314 715 266 715Q232 715 213 692Z" />
<glyph unicode="g" glyph-name="g" horiz-adv-x="500" d="M466 420H386Q416 379 416 325Q416 274 393 236T329 177T241 157Q220 157 197 162Q177 156 166 144T155 116Q155 87 184 76T289 55Q372 44 417 18T463 -70Q463 -116 436 -151T358 -206T245 -226Q162 -226
109 -192T56 -98Q56 -17 149 26Q95 53 95 105Q95 131 109 150T146 181Q108 203 87 239T65 325Q65 374 89 412T153 471T241 492Q279 492 316 476H472L466 420ZM298 210T327 238T357 314Q357 367 325 399T242 432Q190 432 158 402T126 322Q126 269 160 240T245 210Q298
210 327 238ZM401 -42T362 -26T249 0Q219 4 204 7Q119 -24 119 -89Q119 -130 158 -152T258 -174Q317 -174 359 -149T401 -84Q401 -42 362 -26Z" />
<glyph unicode="h" glyph-name="h" horiz-adv-x="573" d="M108 29T108 84V641Q108 674 102 699T80 754L176 780V84Q176 34 189 0H97Q108 29 108 84ZM415 40T415 84V323Q415 378 388 404T303 430Q232 430 176 399Q204 496 326 496Q401 496 441 456T481 344V84Q481
37 489 0H408Q415 40 415 84Z" />
<glyph unicode="i" glyph-name="i" horiz-adv-x="267" d="M99 31T99 84V371Q99 424 80 478L165 494V84Q165 38 175 0H91Q99 31 99 84ZM92 619T91 621T89 630V699Q89 708 90 710T99 712H161Q168 712 169 711T171 702V630Q171 623 170 621T161 619H97Q92 619 91 621Z" />
<glyph unicode="j" glyph-name="j" horiz-adv-x="272" d="M6 -226T-24 -218L-22 -158Q5 -167 36 -167Q108 -167 108 -92V369Q108 422 89 476L174 492L176 -70Q176 -146 141 -186T38 -226Q6 -226 -24 -218ZM101 619T100 621T98 630V699Q98 708 99 710T108 712H170Q177
712 178 711T180 702V630Q180 623 179 621T170 619H106Q101 619 100 621Z" />
<glyph unicode="k" glyph-name="k" horiz-adv-x="500" d="M108 29T108 84V641Q108 674 102 699T80 754L176 780V84Q176 34 189 0H97Q108 29 108 84ZM371 38Q367 43 336 83L184 263L344 424Q362 442 375 458Q384 469 398 489H497Q475 471 416 416L258 268L416 86Q448
49 500 0H397L371 38Z" />
<glyph unicode="l" glyph-name="l" horiz-adv-x="273" d="M108 29T108 84V641Q108 674 102 699T80 754L176 780V84Q176 34 189 0H97Q108 29 108 84Z" />
<glyph unicode="m" glyph-name="m" horiz-adv-x="863" d="M404 40T404 84V323Q404 378 377 404T292 430Q221 430 165 399Q193 496 315 496Q390 496 430 456T470 344V84Q470 37 478 0H397Q404 40 404 84ZM705 40T705 84V323Q705 378 678 404T593 430Q522 430 466
399Q494 496 616 496Q691 496 731 456T771 344V84Q771 37 779 0H698Q705 40 705 84ZM99 31T99 84V371Q99 424 80 478L165 494V84Q165 38 175 0H91Q99 31 99 84Z" />
<glyph unicode="n" glyph-name="n" horiz-adv-x="562" d="M404 40T404 84V323Q404 378 377 404T292 430Q221 430 165 399Q193 496 315 496Q390 496 430 456T470 344V84Q470 37 478 0H397Q404 40 404 84ZM99 31T99 84V371Q99 424 80 478L165 494V84Q165 38 175
0H91Q99 31 99 84Z" />
<glyph unicode="o" glyph-name="o" horiz-adv-x="554" d="M213 -8T163 23T84 112T56 243Q56 317 83 374T160 464T277 496Q344 496 394 465T471 377T498 244Q498 171 472 114T396 24T279 -8Q213 -8 163 23ZM352 48T391 96T430 227Q430 320 390 376T276 433Q203
433 164 383T124 246Q124 157 168 103T284 48Q352 48 391 96Z" />
<glyph unicode="p" glyph-name="p" horiz-adv-x="568" d="M109 -190T109 -136V351Q109 377 102 401T80 454L175 496V67Q223 48 296 48Q364 48 406 99T449 238Q449 334 406 384T283 434Q219 434 175 410Q189 450 222 473T307 496Q399 496 455 433T512 252Q512 175
484 116T405 25T289 -8Q227 -8 175 19V-136Q175 -183 191 -220H96Q109 -190 109 -136Z" />
<glyph unicode="q" glyph-name="q" horiz-adv-x="564" d="M398 -177T398 -104V408Q347 430 282 430Q211 430 168 375T125 232Q125 140 169 93T286 46Q349 46 397 76Q372 -8 263 -8Q165 -8 111 57T56 236Q56 312 87 371T173 463T293 496Q345 496 384 485T466 452V-104Q466
-171 484 -220H381Q398 -177 398 -104Z" />
<glyph unicode="r" glyph-name="r" horiz-adv-x="369" d="M315 428T280 428Q219 428 165 399Q193 496 315 496Q335 496 353 493L349 419Q315 428 280 428ZM99 37T99 84V371Q99 424 80 478L165 494V84Q165 60 168 39T174 0H91Q99 37 99 84Z" />
<glyph unicode="s" glyph-name="s" horiz-adv-x="450" d="M144 -8T78 32V103Q152 48 234 48Q274 48 295 66T317 116Q317 147 293 164T216 204Q171 222 143 238T96 282T76 352Q76 420 120 458T233 496Q310 496 362 465V392Q335 410 300 420T226 431Q183 431 159
413T135 359Q135 324 161 306T242 265Q286 248 313 234T359 193T378 127Q378 62 338 27T228 -8Q144 -8 78 32Z" />
<glyph unicode="t" glyph-name="t" horiz-adv-x="390" d="M185 -8T149 27T114 129L116 420H40L183 570V476H370L365 420H182V131Q182 48 263 48Q314 48 369 64V10Q315 -8 255 -8Q185 -8 149 27Z" />
<glyph unicode="u" glyph-name="u" horiz-adv-x="598" d="M190 -8T149 29T107 145V371Q107 422 88 478L173 494V156Q173 101 200 75T285 48Q365 48 412 87Q403 40 365 16T262 -8Q190 -8 149 29ZM453 -8T433 15T412 75L413 204V364Q413 428 394 478L479 494Q479
348 477 274Q473 146 473 90Q473 48 514 48Q534 48 550 54V8Q529 -8 489 -8Q453 -8 433 15Z" />
<glyph unicode="v" glyph-name="v" horiz-adv-x="499" d="M199 30T191 55T169 116L162 136L32 489H117Q122 447 135 411L247 91H253L367 411Q381 451 386 489H467L431 397L328 136L319 114Q303 72 296 50T284 0H202Q199 30 191 55Z" />
<glyph unicode="w" glyph-name="w" horiz-adv-x="764" d="M732 488L699 396L616 136L604 102Q591 65 586 45T577 0H496Q490 44 469 107L460 136L384 386L300 136Q297 129 295 121T289 104Q277 70 271 48T260 0H179Q177 26 171 48T154 104L144 136L61 412L36 488H121Q124
454 136 410L225 97H231L331 410Q346 458 350 488H423Q427 453 441 410L537 97H543L635 410Q649 459 651 488H732Z" />
<glyph unicode="x" glyph-name="x" horiz-adv-x="480" d="M402 76L456 0H368Q352 33 322 76L236 195L155 76L143 59Q117 23 105 0H24L81 76L202 243L66 432L26 489H114Q131 453 146 432L245 294L342 431Q366 465 374 489H456L410 427L279 247L402 76Z" />
<glyph unicode="y" glyph-name="y" horiz-adv-x="475" d="M51 -226T12 -208V-147Q53 -165 92 -165Q131 -165 154 -146T190 -95T221 -1L62 422Q47 462 32 489H132Q132 450 151 393L251 102H257L356 393Q373 444 373 489H459Q446 462 432 426L302 72Q281 13 264
-49Q248 -109 230 -146T180 -204T96 -226Q51 -226 12 -208Z" />
<glyph unicode="z" glyph-name="z" horiz-adv-x="482" d="M58 46L346 430H146Q97 430 52 410L62 489H421L429 441L135 55H344Q397 55 438 78L427 0H64L58 46Z" />
<glyph unicode="{" glyph-name="braceleft" horiz-adv-x="463" d="M225 -209T191 -183T156 -101Q156 -51 173 55Q189 163 189 204Q189 239 174 256T133 274H120V328H133Q155 328 172 346T189 397Q189 434 172 538Q156 644 156 672Q156 725 190 752T281 780H315V724H282Q252
724 238 709T224 661Q224 635 239 545Q240 536 248 485T256 407Q256 327 187 305V299Q219 291 237 266T256 200Q256 159 248 100T238 29Q237 20 231 -23T224 -89Q224 -122 238 -137T281 -153H315V-209H280Q225 -209 191 -183Z" />
<glyph unicode="|" glyph-name="bar" horiz-adv-x="305" d="M120 750H185V-180H120V750Z" />
<glyph unicode="}" glyph-name="braceright" horiz-adv-x="463" d="M148 -209V-153H182Q211 -153 225 -138T239 -89Q239 -66 233 -23T225 29Q223 41 215 100T207 200Q207 240 225 265T276 299V305Q207 327 207 407Q207 433 215 484T224 545Q239 635 239 661Q239
693 225 708T181 724H148V780H182Q239 780 273 753T307 672Q307 644 291 538Q274 434 274 397Q274 365 291 347T330 328H343V274H330Q304 274 289 257T274 204Q274 163 290 55Q307 -51 307 -101Q307 -157 273 -183T183 -209H148Z" />
<glyph unicode="~" glyph-name="asciitilde" horiz-adv-x="700" d="M64 209T64 223Q64 263 87 284T155 306Q219 306 334 297Q352 296 415 292T528 288Q600 288 635 319Q636 313 636 301Q636 258 613 239T538 220Q474 220 328 229Q234 236 184 236Q144 236 115
228T65 201Q64 209 64 223Z" />
</font>
</defs>
</svg>
